<?xml version="1.0" encoding="utf-8"?>
<!-- Generator: Adobe Illustrator 23.1.0, SVG Export Plug-In . SVG Version: 6.00 Build 0)  -->
<svg version="1.1" id="Capa_1" xmlns="http://www.w3.org/2000/svg" xmlns:xlink="http://www.w3.org/1999/xlink" x="0px" y="0px"
	 viewBox="0 0 512 512" style="enable-background:new 0 0 512 512;" xml:space="preserve">
<style type="text/css">
	.st0{fill:none;stroke:#6DB4D8;stroke-width:14;}
	.st1{fill:#268F42;}
	.st2{fill:#156636;}
	.st3{fill:#FFFFFF;}
	.st4{fill:#5498D1;}
</style>
<path id="Circulo" class="st0" d="M163.55,64.78c26.58-15.44,57.47-24.29,90.42-24.29c99.55,0,180.25,80.7,180.25,180.25
	S353.52,401,253.97,401S73.72,320.3,73.72,220.75c0-42.07,14.42-80.78,38.58-111.45"/>
<g id="Planta">
	<g>
		<path class="st1" d="M260.87,382.84c-1.89-0.75-2.32-1.72-2.31-3.68c0.1-26.59,0-53.19,0.15-79.79
			c0.09-17.07,0.72-34.14,0.73-51.21c0-13.76-0.64-27.48-2.59-41.18c-1.67-11.71-4.97-22.86-9.43-33.6
			c-3.37-8.1-7.88-15.72-13.68-22.64c-7.28-8.7-16.08-15.28-25.8-20.59c-8.73-4.77-18.01-8.54-27.02-12.82
			c-7.63-3.63-15.19-7.4-22.83-11.02c-6.47-3.06-12.11-7.31-17.12-12.3c-2.06-2.06-4.42-2.96-6.57-1.96
			c-1.73,0.81-3.28,3.1-3.89,5.06c-2.14,6.9-4.13,13.88-5.63,20.95c-1.19,5.62-1.99,11.39-2.18,17.12
			c-0.24,7.23-0.16,14.54,0.69,21.71c0.79,6.67,1.99,13.5,4.41,19.72c2.78,7.13,6,14.17,10.96,20.37
			c6.76,8.45,14.35,15.96,23.35,21.79c11.1,7.19,23.58,11.71,35.79,16.65c8.57,3.47,17.45,6.39,24.8,12.19
			c4.44,3.5,8.24,8.1,8.34,13.99c0.3,17,0.11,34.01,0.03,51.01c-0.01,1.03-0.5,2.31-1.21,3.05c-4.69,4.86-9.46,9.64-14.33,14.33
			c-0.62,0.59-2.02,0.86-2.89,0.63c-11.74-3.12-21.62,3.7-23.29,15.37c-0.99,6.97,5.92,18.52,17.88,18.65
			c10.76,0.12,20.74-12.35,16.02-23.07c-1.12-2.55-0.81-4.05,1.18-5.93c5-4.7,9.82-9.59,14.54-14.58c1.05-1.11,1.89-2.92,1.9-4.41
			c0.13-17.98-0.04-35.97,0.15-53.95c0.07-6.65-2.23-12.21-6.35-17.14c-7.47-8.92-18.09-13.01-28.2-17.69
			c-7.76-3.59-15.86-6.43-23.82-9.59c-6.89-2.74-13.06-6.66-19.13-10.88c-9.14-6.34-16.58-14.3-21.78-23.93
			c-5.89-10.92-8.73-22.93-9.37-35.39c-0.01-3.27-0.01-6.53-0.02-9.8c0.83-10.23,2.25-20.33,5.08-30.25
			c0.76-2.66,1.28-2.12,2.99-1.04c6.69,4.22,13.23,8.79,20.29,12.3c9.08,4.51,18.76,7.78,27.88,12.21
			c7.94,3.85,15.42,8.62,23.16,12.89c7.27,4.01,13.14,9.65,17.42,16.59c4.12,6.67,7.75,13.75,10.73,21
			c4.17,10.16,6.49,20.9,7.62,31.85c0.07,0.71-0.39,1.48-0.6,2.23c-0.44-0.56-1.02-1.05-1.3-1.68
			c-7.75-16.92-20.02-30.06-34.41-41.47c-12.09-9.58-25.69-16.21-40.37-20.75c-3.38-1.05-6.68,0.42-7.41,3.17
			c-0.79,2.92,1.09,5.46,4.7,6.53c9.42,2.79,18.32,6.71,26.71,11.87c10.71,6.59,20.25,14.41,28.3,24.16
			c9.34,11.31,15.82,23.99,19.99,37.98c2.7,9.05,5.51,18.17,5.57,27.6c0.26,38.58,0.12,77.17,0.02,115.75
			c0,1.01-0.98,2.48-1.91,2.96c-7.62,3.99-12.3,12.55-10.2,19.9c2.24,7.85,8.54,13.93,17.68,13.67c8.64-0.25,14.97-5.9,16.72-15.22
			C272.27,393.81,267.69,385.56,260.87,382.84z M206.85,354.11c-4.21,0-7.11-2.84-7.1-6.95c0.01-4.09,3.37-7.53,7.25-7.42
			c3.63,0.1,7.15,3.78,7.1,7.43C214.05,351.29,211.11,354.11,206.85,354.11z M258.76,403.52c-0.58,0.57-1.23,1.02-1.95,1.36
			c-0.99,0.52-2.06,0.84-3.15,0.85c-3.9,0.04-6.91-3.15-6.93-7.34c-0.01-3.42,1.85-5.98,4.73-6.84c0.02-0.01,0.05-0.02,0.07-0.02
			c0.01,0,0.02-0.01,0.03-0.01c0.67-0.21,1.41-0.33,2.23-0.33c0.5-0.02,0.97,0.03,1.44,0.13c1.42,0.27,2.56,0.92,3.41,1.82
			c0.03,0.03,0.07,0.06,0.1,0.1c0.18,0.16,0.34,0.34,0.49,0.52c1.18,1.25,1.94,2.86,1.95,4.53c0.01,1.83-0.91,3.67-2.31,5.06
			C258.85,403.4,258.8,403.46,258.76,403.52z"/>
		<path class="st2" d="M283.24,366.66c0.36-1.98,0.17-4.31,1.19-5.85c1.71-2.59,0.36-3.81-1.24-5.38
			c-5.12-5.05-10.29-10.06-15.21-15.31c-1.18-1.26-1.91-3.3-2.08-5.06c-0.32-3.35-0.07-6.75-0.1-10.13
			c-0.18-19.15-0.32-38.3-0.6-57.45c-0.12-8.53,2.09-16.32,8.18-22.28c3.46-3.38,7.95-5.83,12.27-8.16
			c9.43-5.08,19.23-9.48,28.53-14.77c9.2-5.23,16.5-12.7,20.6-22.59c2.83-6.82,4.86-13.91,5.01-21.53
			c0.18-8.88-0.68-17.56-2.68-26.18c-0.37-1.58-0.39-1.9-2.12-0.94c-7.14,3.97-14.42,7.66-21.68,11.4
			c-2.74,1.41-5.55,2.66-8.34,3.97c-10.53,4.92-21.36,9.34-29.22,18.48c-1.56,1.81-3.1,3.64-4.75,5.37
			c-1.81,1.89-5.67,2.38-7.57,0.73c-2.29-1.98-1.68-4.43-0.28-6.67c5.23-8.39,12.21-14.77,21.33-18.82
			c4.22-1.87,8.17-4.34,12.32-6.37c4.45-2.18,9.06-4.05,13.5-6.27c5.6-2.81,11.17-5.73,16.61-8.84c2.29-1.31,4.66-2.91,6.23-4.96
			c4.02-5.24,10.02-2.79,11.57,3.01c0.95,3.56,2.19,7.07,2.83,10.69c0.89,5.08,1.57,10.23,1.91,15.38
			c0.31,4.76,0.37,9.58,0.01,14.33c-1.05,13.85-5.5,26.16-15.41,36.5c-10.22,10.66-22.61,17.5-35.81,23.54
			c-6.39,2.92-12.28,7.1-18.01,11.24c-3.94,2.85-4.45,7.48-4.14,12.18c0.15,2.23-0.46,4.5-0.46,6.75
			c-0.04,18.31-0.01,36.62-0.03,54.93c-0.01,4.69,1.45,8.36,5.6,11.19c3.06,2.09,6.14,4.79,7.92,7.95c2.21,3.9,5.15,3.23,8.14,2.66
			c7.56-1.45,14.3,1.8,18.35,8.1c6.8,10.56-0.78,24.11-12.09,26.41c-5.73,1.17-14.25-2.97-17.42-8.87
			c-1.37-2.55-2.26-5.36-3.36-8.05C282.92,366.9,283.08,366.78,283.24,366.66z M307.8,366.22c0.03-4.18-2.86-7.08-7.08-7.1
			c-3.95-0.02-6.99,2.95-7.05,6.88c-0.06,4.17,2.88,7.21,6.98,7.23C304.98,373.25,307.77,370.52,307.8,366.22z"/>
	</g>
	<circle class="st3" cx="253.97" cy="398.16" r="8.42"/>
</g>
<circle class="st4" cx="119.04" cy="100.15" r="6.54"/>
<circle class="st4" cx="155.42" cy="68.57" r="6.54"/>
</svg>
