<?xml version="1.0" encoding="utf-8"?>
<!-- Generator: Adobe Illustrator 23.1.0, SVG Export Plug-In . SVG Version: 6.00 Build 0)  -->
<svg version="1.1" id="Capa_1" xmlns="http://www.w3.org/2000/svg" xmlns:xlink="http://www.w3.org/1999/xlink" x="0px" y="0px"
	 viewBox="0 0 227.1 324.1" style="enable-background:new 0 0 227.1 324.1;" xml:space="preserve">
<style type="text/css">
	.st0{fill:#FFFFFF;}
</style>
<g id="Planta">
	<g>
		<path class="st0" d="M138.3,291.2c-1.9-0.8-2.3-1.7-2.3-3.7c0.1-26.6,0-53.2,0.1-79.8c0.1-17.1,0.7-34.1,0.7-51.2
			c0-13.8-0.6-27.5-2.6-41.2c-1.7-11.7-5-22.9-9.4-33.6c-3.4-8.1-7.9-15.7-13.7-22.6c-7.3-8.7-16.1-15.3-25.8-20.6
			c-8.7-4.8-18-8.5-27-12.8c-7.6-3.6-15.2-7.4-22.8-11C29,11.6,23.4,7.4,18.4,2.4c-2.1-2.1-4.4-3-6.6-2c-1.7,0.8-3.3,3.1-3.9,5.1
			c-2.1,6.9-4.1,13.9-5.6,21c-1.2,5.6-2,11.4-2.2,17.1C-0.1,50.8,0,58.1,0.8,65.2c0.8,6.7,2,13.5,4.4,19.7c2.8,7.1,6,14.2,11,20.4
			c6.8,8.4,14.4,16,23.4,21.8c11.1,7.2,23.6,11.7,35.8,16.7c8.6,3.5,17.4,6.4,24.8,12.2c4.4,3.5,8.2,8.1,8.3,14c0.3,17,0.1,34,0,51
			c0,1-0.5,2.3-1.2,3c-4.7,4.9-9.5,9.6-14.3,14.3c-0.6,0.6-2,0.9-2.9,0.6c-11.7-3.1-21.6,3.7-23.3,15.4c-1,7,5.9,18.5,17.9,18.6
			c10.8,0.1,20.7-12.4,16-23.1c-1.1-2.5-0.8-4,1.2-5.9c5-4.7,9.8-9.6,14.5-14.6c1.1-1.1,1.9-2.9,1.9-4.4c0.1-18,0-36,0.1-54
			c0.1-6.6-2.2-12.2-6.4-17.1c-7.5-8.9-18.1-13-28.2-17.7c-7.8-3.6-15.9-6.4-23.8-9.6c-6.9-2.7-13.1-6.7-19.1-10.9
			c-9.1-6.3-16.6-14.3-21.8-23.9c-5.9-10.9-8.7-22.9-9.4-35.4c0-3.3,0-6.5,0-9.8c0.8-10.2,2.3-20.3,5.1-30.3c0.8-2.7,1.3-2.1,3-1
			c6.7,4.2,13.2,8.8,20.3,12.3c9.1,4.5,18.8,7.8,27.9,12.2c7.9,3.9,15.4,8.6,23.2,12.9c7.3,4,13.1,9.6,17.4,16.6
			c4.1,6.7,7.8,13.8,10.7,21c4.2,10.2,6.5,20.9,7.6,31.9c0.1,0.7-0.4,1.5-0.6,2.2c-0.4-0.6-1-1.1-1.3-1.7
			c-7.8-16.9-20-30.1-34.4-41.5c-12.1-9.6-25.7-16.2-40.4-20.7c-3.4-1.1-6.7,0.4-7.4,3.2c-0.8,2.9,1.1,5.5,4.7,6.5
			C55,73,63.9,76.9,72.3,82.1c10.7,6.6,20.3,14.4,28.3,24.2c9.3,11.3,15.8,24,20,38c2.7,9.1,5.5,18.2,5.6,27.6
			c0.3,38.6,0.1,77.2,0,115.8c0,1-1,2.5-1.9,3c-7.6,4-12.3,12.5-10.2,19.9c2.2,7.9,8.5,13.9,17.7,13.7c8.6-0.3,15-5.9,16.7-15.2
			C149.7,302.2,145.1,293.9,138.3,291.2z M84.3,262.5c-4.2,0-7.1-2.8-7.1-7c0-4.1,3.4-7.5,7.3-7.4c3.6,0.1,7.1,3.8,7.1,7.4
			C91.5,259.6,88.5,262.5,84.3,262.5z M136.2,311.9c-0.6,0.6-1.2,1-2,1.4c-1,0.5-2.1,0.8-3.1,0.9c-3.9,0-6.9-3.1-6.9-7.3
			c0-3.4,1.9-6,4.7-6.8c0,0,0.1,0,0.1,0c0,0,0,0,0,0c0.7-0.2,1.4-0.3,2.2-0.3c0.5,0,1,0,1.4,0.1c1.4,0.3,2.6,0.9,3.4,1.8
			c0,0,0.1,0.1,0.1,0.1c0.2,0.2,0.3,0.3,0.5,0.5c1.2,1.3,1.9,2.9,2,4.5c0,1.8-0.9,3.7-2.3,5.1C136.3,311.8,136.2,311.8,136.2,311.9z
			"/>
		<path class="st0" d="M160.7,275c0.4-2,0.2-4.3,1.2-5.9c1.7-2.6,0.4-3.8-1.2-5.4c-5.1-5-10.3-10.1-15.2-15.3
			c-1.2-1.3-1.9-3.3-2.1-5.1c-0.3-3.4-0.1-6.8-0.1-10.1c-0.2-19.1-0.3-38.3-0.6-57.5c-0.1-8.5,2.1-16.3,8.2-22.3
			c3.5-3.4,8-5.8,12.3-8.2c9.4-5.1,19.2-9.5,28.5-14.8c9.2-5.2,16.5-12.7,20.6-22.6c2.8-6.8,4.9-13.9,5-21.5
			c0.2-8.9-0.7-17.6-2.7-26.2c-0.4-1.6-0.4-1.9-2.1-0.9c-7.1,4-14.4,7.7-21.7,11.4c-2.7,1.4-5.5,2.7-8.3,4
			c-10.5,4.9-21.4,9.3-29.2,18.5c-1.6,1.8-3.1,3.6-4.8,5.4c-1.8,1.9-5.7,2.4-7.6,0.7c-2.3-2-1.7-4.4-0.3-6.7
			c5.2-8.4,12.2-14.8,21.3-18.8c4.2-1.9,8.2-4.3,12.3-6.4c4.5-2.2,9.1-4,13.5-6.3c5.6-2.8,11.2-5.7,16.6-8.8c2.3-1.3,4.7-2.9,6.2-5
			c4-5.2,10-2.8,11.6,3c1,3.6,2.2,7.1,2.8,10.7c0.9,5.1,1.6,10.2,1.9,15.4c0.3,4.8,0.4,9.6,0,14.3c-1,13.9-5.5,26.2-15.4,36.5
			c-10.2,10.7-22.6,17.5-35.8,23.5c-6.4,2.9-12.3,7.1-18,11.2c-3.9,2.8-4.5,7.5-4.1,12.2c0.1,2.2-0.5,4.5-0.5,6.8
			c0,18.3,0,36.6,0,54.9c0,4.7,1.5,8.4,5.6,11.2c3.1,2.1,6.1,4.8,7.9,8c2.2,3.9,5.1,3.2,8.1,2.7c7.6-1.5,14.3,1.8,18.4,8.1
			c6.8,10.6-0.8,24.1-12.1,26.4c-5.7,1.2-14.3-3-17.4-8.9c-1.4-2.5-2.3-5.4-3.4-8C160.3,275.3,160.5,275.1,160.7,275z M185.2,274.6
			c0-4.2-2.9-7.1-7.1-7.1c-4,0-7,3-7,6.9c-0.1,4.2,2.9,7.2,7,7.2C182.4,281.6,185.2,278.9,185.2,274.6z"/>
	</g>
</g>
</svg>
